<svg width="24" height="24" viewBox="0 0 24 24" fill="none" xmlns="http://www.w3.org/2000/svg">
    <path d="M5 12.25C5 10.3272 5.76384 8.48311 7.12348 7.12348C8.48311 5.76384 10.3272 5 12.25 5C14.1728 5 16.0169 5.76384 17.3765 7.12348C18.7362 8.48311 19.5 10.3272 19.5 12.25C19.5 14.1728 18.7362 16.0169 17.3765 17.3765C16.0169 18.7362 14.1728 19.5 12.25 19.5C10.3272 19.5 8.48311 18.7362 7.12348 17.3765C5.76384 16.0169 5 14.1728 5 12.25V12.25Z" stroke="#475569" stroke-width="1.5" stroke-linecap="round" stroke-linejoin="round" />
    <path d="M10 13L10.434 13.924C10.5117 14.0897 10.6333 14.231 10.7858 14.3323C10.9382 14.4337 11.1155 14.4912 11.2983 14.4988C11.4812 14.5063 11.6626 14.4635 11.8229 14.375C11.9831 14.2865 12.116 14.1558 12.207 13.997L14.5 10" stroke="#475569" stroke-width="1.5" stroke-linecap="round" stroke-linejoin="round" />
</svg>