<svg width="104" height="18" viewBox="0 0 104 18" xmlns="http://www.w3.org/2000/svg">
    <path d="M0 17.6161V0.429109H6.05189V6.24467C6.27018 5.42409 6.73687 4.76161 7.45196 4.25721C8.16705 3.75282 9.15311 3.50063 10.4102 3.50063C12.0812 3.50063 13.2931 3.83563 14.0458 4.50565C14.7985 5.17566 15.1749 6.13927 15.1749 7.39649V17.6161H9.123V9.64366C9.123 9.21455 9.01386 8.89837 8.79557 8.69511C8.57728 8.48432 8.23856 8.37892 7.77939 8.37892C7.19227 8.37892 6.75945 8.5069 6.48095 8.76286C6.20997 9.01882 6.07448 9.39147 6.07448 9.8808V17.6161H0Z" />
    <path d="M25.4609 3.29737C26.9964 3.29737 28.3739 3.45922 29.5933 3.78294C30.1277 3.91844 30.6471 4.15935 31.1515 4.50565C31.6633 4.84442 32.0999 5.28105 32.4612 5.81556C32.83 6.34253 33.1085 6.97867 33.2967 7.72397C33.4849 8.46926 33.579 9.33124 33.579 10.3099C33.579 11.5822 33.4247 12.734 33.1161 13.7654C32.8074 14.7892 32.3408 15.6098 31.716 16.2271C31.0988 16.8444 30.4025 17.2735 29.6272 17.5144C28.5734 17.8381 27.3464 18 25.9464 18C24.885 18 23.8801 17.9398 22.9317 17.8193C21.9833 17.6989 21.2004 17.473 20.5832 17.1418C19.966 16.803 19.424 16.3325 18.9573 15.7302C18.4982 15.1205 18.1745 14.5031 17.9863 13.8783C17.6551 12.8018 17.4895 11.6688 17.4895 10.4793C17.4895 9.40276 17.5799 8.47679 17.7605 7.70138C17.9487 6.91844 18.2121 6.28607 18.5509 5.80427C18.8896 5.32246 19.345 4.88959 19.9171 4.50565C20.4967 4.11418 21.1515 3.83187 21.8817 3.65872C22.9129 3.41782 24.106 3.29737 25.4609 3.29737ZM25.4044 13.7089C26.2926 13.7089 26.9211 13.5094 27.29 13.1104C27.6588 12.7039 27.8432 11.9511 27.8432 10.8519C27.8432 10.1593 27.7604 9.61732 27.5948 9.22585C27.4368 8.82685 27.1884 8.54078 26.8496 8.36763C26.5184 8.19448 26.1157 8.10791 25.6415 8.10791C25.1146 8.10791 24.663 8.20201 24.2866 8.39021C23.9178 8.57089 23.6506 8.83438 23.485 9.18068C23.3194 9.52698 23.2366 10.1104 23.2366 10.931C23.2366 11.9849 23.4097 12.7114 23.7559 13.1104C24.1097 13.5094 24.6592 13.7089 25.4044 13.7089Z" />
    <path d="M35.7807 17.6161V3.74906H41.4035V7.30615C41.7347 5.78545 42.0848 4.79925 42.4536 4.34755C42.9579 3.71518 43.7257 3.399 44.7569 3.399C45.0881 3.399 45.4043 3.41782 45.7054 3.45546V9.95985H45.3328C44.437 9.95985 43.7709 10.0314 43.3343 10.1744C43.0031 10.2873 42.7208 10.4831 42.4875 10.7616C42.3219 10.9498 42.1788 11.2396 42.0584 11.6311C41.938 12.0226 41.8778 12.4291 41.8778 12.8507V17.6161H35.7807Z" />
    <path d="M52.9654 2.84567H48.7652C48.4641 2.84567 48.242 2.8005 48.099 2.71016C48.0012 2.64241 47.9334 2.54454 47.8958 2.41656C47.8657 2.28105 47.8506 1.96487 47.8506 1.46801C47.8506 0.918444 47.877 0.57591 47.9296 0.440402C47.9899 0.297365 48.099 0.188206 48.2571 0.112923C48.4152 0.0376412 48.7162 0 49.1604 0H52.5589C53.1234 0 53.4735 0.0828105 53.6089 0.248432C53.752 0.406524 53.8235 0.752823 53.8235 1.28733C53.8235 1.867 53.7971 2.23965 53.7444 2.40527C53.7143 2.53325 53.6428 2.63112 53.5299 2.69887C53.3643 2.79674 53.1761 2.84567 52.9654 2.84567ZM53.8235 17.6161H47.7716V3.90715C48.02 3.99749 48.2684 4.05772 48.5168 4.08783C49.1039 4.14806 49.8867 4.17817 50.8653 4.17817C51.6105 4.17817 52.3067 4.14429 52.9541 4.07654C53.353 4.0389 53.6428 3.98243 53.8235 3.90715V17.6161Z" />
    <path d="M68.8629 17.6161H56.2849V13.9235L62.1222 8.7064H56.2849V3.74906H68.8629V8.22083L63.161 13.3363H68.8629V17.6161Z" />
    <path d="M78.5053 3.29737C80.0408 3.29737 81.4183 3.45922 82.6377 3.78294C83.1721 3.91844 83.6915 4.15935 84.1959 4.50565C84.7077 4.84442 85.1443 5.28105 85.5056 5.81556C85.8744 6.34253 86.1529 6.97867 86.3411 7.72397C86.5293 8.46926 86.6234 9.33124 86.6234 10.3099C86.6234 11.5822 86.4691 12.734 86.1605 13.7654C85.8518 14.7892 85.3852 15.6098 84.7604 16.2271C84.1432 16.8444 83.4469 17.2735 82.6716 17.5144C81.6178 17.8381 80.3908 18 78.9908 18C77.9294 18 76.9246 17.9398 75.9761 17.8193C75.0277 17.6989 74.2449 17.473 73.6276 17.1418C73.0104 16.803 72.4684 16.3325 72.0017 15.7302C71.5426 15.1205 71.2189 14.5031 71.0307 13.8783C70.6995 12.8018 70.5339 11.6688 70.5339 10.4793C70.5339 9.40276 70.6243 8.47679 70.8049 7.70138C70.9931 6.91844 71.2565 6.28607 71.5953 5.80427C71.934 5.32246 72.3894 4.88959 72.9615 4.50565C73.5411 4.11418 74.1959 3.83187 74.9261 3.65872C75.9573 3.41782 77.1504 3.29737 78.5053 3.29737ZM78.4488 13.7089C79.337 13.7089 79.9656 13.5094 80.3344 13.1104C80.7032 12.7039 80.8876 11.9511 80.8876 10.8519C80.8876 10.1593 80.8048 9.61732 80.6392 9.22585C80.4812 8.82685 80.2328 8.54078 79.894 8.36763C79.5628 8.19448 79.1601 8.10791 78.6859 8.10791C78.159 8.10791 77.7074 8.20201 77.331 8.39021C76.9622 8.57089 76.695 8.83438 76.5294 9.18068C76.3638 9.52698 76.281 10.1104 76.281 10.931C76.281 11.9849 76.4541 12.7114 76.8003 13.1104C77.1541 13.5094 77.7036 13.7089 78.4488 13.7089Z" />
    <path d="M88.8251 17.6161V3.74906H94.6286V7.26098C94.749 6.41029 95.0012 5.69134 95.3851 5.10414C95.769 4.50941 96.247 4.07277 96.819 3.79423C97.3986 3.51568 98.1927 3.37641 99.2014 3.37641C100.895 3.37641 102.167 3.74153 103.018 4.47177C103.673 5.02886 104 5.91343 104 7.12547V17.6161H98.061V9.93727C98.061 9.35759 97.9406 8.93977 97.6997 8.68382C97.4588 8.42785 97.0938 8.29988 96.6045 8.29988C96.1077 8.29988 95.6937 8.42785 95.3625 8.68382C95.0388 8.93977 94.877 9.35759 94.877 9.93727V17.6161H88.8251Z" />
</svg>